<?xml version="1.0" encoding="UTF-8"?>
<svg xmlns="http://www.w3.org/2000/svg" width="1200" height="800" viewBox="0 0 1200 800">
  <rect x="0" y="0" width="1200" height="800" fill="#ffffff"/>

  <!-- grid -->
  <g opacity="0.25">
    <line x1="80.00" y1="80" x2="80.00" y2="720" stroke="#999" stroke-width="1"/><line x1="253.33" y1="80" x2="253.33" y2="720" stroke="#999" stroke-width="1"/><line x1="426.67" y1="80" x2="426.67" y2="720" stroke="#999" stroke-width="1"/><line x1="600.00" y1="80" x2="600.00" y2="720" stroke="#999" stroke-width="1"/><line x1="773.33" y1="80" x2="773.33" y2="720" stroke="#999" stroke-width="1"/><line x1="946.67" y1="80" x2="946.67" y2="720" stroke="#999" stroke-width="1"/><line x1="1120.00" y1="80" x2="1120.00" y2="720" stroke="#999" stroke-width="1"/>
    <line x1="80" y1="637.04" x2="1120" y2="637.04" stroke="#999" stroke-width="1"/><line x1="80" y1="518.52" x2="1120" y2="518.52" stroke="#999" stroke-width="1"/><line x1="80" y1="400.00" x2="1120" y2="400.00" stroke="#999" stroke-width="1"/><line x1="80" y1="281.48" x2="1120" y2="281.48" stroke="#999" stroke-width="1"/><line x1="80" y1="162.96" x2="1120" y2="162.96" stroke="#999" stroke-width="1"/>
  </g>

  <!-- axes -->
  <line x1="80" y1="400.00" x2="1120" y2="400.00" stroke="#111" stroke-width="3"/>
  <line x1="600.00" y1="80" x2="600.00" y2="720" stroke="#111" stroke-width="3"/>

  <!-- ticks/labels -->
  <g>
    <line x1="80.00" y1="394.00" x2="80.00" y2="406.00" stroke="#222" stroke-width="2"/><text x="80.00" y="428.00" font-size="22" text-anchor="middle" fill="#111">-3</text><line x1="253.33" y1="394.00" x2="253.33" y2="406.00" stroke="#222" stroke-width="2"/><text x="253.33" y="428.00" font-size="22" text-anchor="middle" fill="#111">-2</text><line x1="426.67" y1="394.00" x2="426.67" y2="406.00" stroke="#222" stroke-width="2"/><text x="426.67" y="428.00" font-size="22" text-anchor="middle" fill="#111">-1</text><line x1="600.00" y1="394.00" x2="600.00" y2="406.00" stroke="#222" stroke-width="2"/><text x="600.00" y="428.00" font-size="22" text-anchor="middle" fill="#111">0</text><line x1="773.33" y1="394.00" x2="773.33" y2="406.00" stroke="#222" stroke-width="2"/><text x="773.33" y="428.00" font-size="22" text-anchor="middle" fill="#111">1</text><line x1="946.67" y1="394.00" x2="946.67" y2="406.00" stroke="#222" stroke-width="2"/><text x="946.67" y="428.00" font-size="22" text-anchor="middle" fill="#111">2</text><line x1="1120.00" y1="394.00" x2="1120.00" y2="406.00" stroke="#222" stroke-width="2"/><text x="1120.00" y="428.00" font-size="22" text-anchor="middle" fill="#111">3</text><line x1="594.00" y1="637.04" x2="606.00" y2="637.04" stroke="#222" stroke-width="2"/><text x="582.00" y="645.04" font-size="22" text-anchor="end" fill="#111">-20</text><line x1="594.00" y1="518.52" x2="606.00" y2="518.52" stroke="#222" stroke-width="2"/><text x="582.00" y="526.52" font-size="22" text-anchor="end" fill="#111">-10</text><line x1="594.00" y1="400.00" x2="606.00" y2="400.00" stroke="#222" stroke-width="2"/><line x1="594.00" y1="281.48" x2="606.00" y2="281.48" stroke="#222" stroke-width="2"/><text x="582.00" y="289.48" font-size="22" text-anchor="end" fill="#111">10</text><line x1="594.00" y1="162.96" x2="606.00" y2="162.96" stroke="#222" stroke-width="2"/><text x="582.00" y="170.96" font-size="22" text-anchor="end" fill="#111">20</text>
  </g>

  <!-- curve -->
  <path d="M 80.00,720.00 L 81.30,717.61 L 82.60,715.22 L 83.90,712.85 L 85.20,710.50 L 86.50,708.15 L 87.80,705.81 L 89.10,703.49 L 90.40,701.18 L 91.70,698.88 L 93.00,696.59 L 94.30,694.32 L 95.60,692.06 L 96.90,689.80 L 98.20,687.56 L 99.50,685.33 L 100.80,683.12 L 102.10,680.91 L 103.40,678.71 L 104.70,676.53 L 106.00,674.36 L 107.30,672.20 L 108.60,670.05 L 109.90,667.91 L 111.20,665.79 L 112.50,663.67 L 113.80,661.57 L 115.10,659.48 L 116.40,657.39 L 117.70,655.32 L 119.00,653.26 L 120.30,651.22 L 121.60,649.18 L 122.90,647.15 L 124.20,645.14 L 125.50,643.14 L 126.80,641.14 L 128.10,639.16 L 129.40,637.19 L 130.70,635.23 L 132.00,633.28 L 133.30,631.34 L 134.60,629.41 L 135.90,627.50 L 137.20,625.59 L 138.50,623.69 L 139.80,621.81 L 141.10,619.93 L 142.40,618.07 L 143.70,616.22 L 145.00,614.38 L 146.30,612.54 L 147.60,610.72 L 148.90,608.91 L 150.20,607.11 L 151.50,605.32 L 152.80,603.54 L 154.10,601.77 L 155.40,600.01 L 156.70,598.26 L 158.00,596.52 L 159.30,594.79 L 160.60,593.07 L 161.90,591.36 L 163.20,589.67 L 164.50,587.98 L 165.80,586.30 L 167.10,584.63 L 168.40,582.97 L 169.70,581.32 L 171.00,579.68 L 172.30,578.06 L 173.60,576.44 L 174.90,574.83 L 176.20,573.23 L 177.50,571.64 L 178.80,570.06 L 180.10,568.49 L 181.40,566.93 L 182.70,565.38 L 184.00,563.84 L 185.30,562.31 L 186.60,560.79 L 187.90,559.28 L 189.20,557.77 L 190.50,556.28 L 191.80,554.80 L 193.10,553.32 L 194.40,551.86 L 195.70,550.40 L 197.00,548.96 L 198.30,547.52 L 199.60,546.09 L 200.90,544.67 L 202.20,543.26 L 203.50,541.86 L 204.80,540.47 L 206.10,539.09 L 207.40,537.72 L 208.70,536.35 L 210.00,535.00 L 211.30,533.65 L 212.60,532.32 L 213.90,530.99 L 215.20,529.67 L 216.50,528.36 L 217.80,527.06 L 219.10,525.77 L 220.40,524.49 L 221.70,523.21 L 223.00,521.94 L 224.30,520.69 L 225.60,519.44 L 226.90,518.20 L 228.20,516.97 L 229.50,515.75 L 230.80,514.53 L 232.10,513.33 L 233.40,512.13 L 234.70,510.94 L 236.00,509.76 L 237.30,508.59 L 238.60,507.42 L 239.90,506.27 L 241.20,505.12 L 242.50,503.98 L 243.80,502.85 L 245.10,501.73 L 246.40,500.62 L 247.70,499.51 L 249.00,498.41 L 250.30,497.33 L 251.60,496.24 L 252.90,495.17 L 254.20,494.11 L 255.50,493.05 L 256.80,492.00 L 258.10,490.96 L 259.40,489.92 L 260.70,488.90 L 262.00,487.88 L 263.30,486.87 L 264.60,485.87 L 265.90,484.87 L 267.20,483.89 L 268.50,482.91 L 269.80,481.94 L 271.10,480.97 L 272.40,480.02 L 273.70,479.07 L 275.00,478.12 L 276.30,477.19 L 277.60,476.26 L 278.90,475.35 L 280.20,474.43 L 281.50,473.53 L 282.80,472.63 L 284.10,471.74 L 285.40,470.86 L 286.70,469.99 L 288.00,469.12 L 289.30,468.26 L 290.60,467.41 L 291.90,466.56 L 293.20,465.72 L 294.50,464.89 L 295.80,464.06 L 297.10,463.25 L 298.40,462.44 L 299.70,461.63 L 301.00,460.83 L 302.30,460.04 L 303.60,459.26 L 304.90,458.49 L 306.20,457.72 L 307.50,456.95 L 308.80,456.20 L 310.10,455.45 L 311.40,454.71 L 312.70,453.97 L 314.00,453.24 L 315.30,452.52 L 316.60,451.80 L 317.90,451.09 L 319.20,450.39 L 320.50,449.69 L 321.80,449.00 L 323.10,448.32 L 324.40,447.64 L 325.70,446.97 L 327.00,446.31 L 328.30,445.65 L 329.60,444.99 L 330.90,444.35 L 332.20,443.71 L 333.50,443.08 L 334.80,442.45 L 336.10,441.83 L 337.40,441.21 L 338.70,440.60 L 340.00,440.00 L 341.30,439.40 L 342.60,438.81 L 343.90,438.23 L 345.20,437.65 L 346.50,437.07 L 347.80,436.51 L 349.10,435.95 L 350.40,435.39 L 351.70,434.84 L 353.00,434.30 L 354.30,433.76 L 355.60,433.22 L 356.90,432.70 L 358.20,432.17 L 359.50,431.66 L 360.80,431.15 L 362.10,430.64 L 363.40,430.14 L 364.70,429.65 L 366.00,429.16 L 367.30,428.68 L 368.60,428.20 L 369.90,427.73 L 371.20,427.26 L 372.50,426.80 L 373.80,426.34 L 375.10,425.89 L 376.40,425.44 L 377.70,425.00 L 379.00,424.56 L 380.30,424.13 L 381.60,423.71 L 382.90,423.29 L 384.20,422.87 L 385.50,422.46 L 386.80,422.05 L 388.10,421.65 L 389.40,421.26 L 390.70,420.87 L 392.00,420.48 L 393.30,420.10 L 394.60,419.72 L 395.90,419.35 L 397.20,418.98 L 398.50,418.62 L 399.80,418.26 L 401.10,417.91 L 402.40,417.56 L 403.70,417.21 L 405.00,416.88 L 406.30,416.54 L 407.60,416.21 L 408.90,415.88 L 410.20,415.56 L 411.50,415.24 L 412.80,414.93 L 414.10,414.62 L 415.40,414.32 L 416.70,414.02 L 418.00,413.72 L 419.30,413.43 L 420.60,413.14 L 421.90,412.86 L 423.20,412.58 L 424.50,412.30 L 425.80,412.03 L 427.10,411.76 L 428.40,411.50 L 429.70,411.24 L 431.00,410.98 L 432.30,410.73 L 433.60,410.49 L 434.90,410.24 L 436.20,410.00 L 437.50,409.77 L 438.80,409.53 L 440.10,409.30 L 441.40,409.08 L 442.70,408.86 L 444.00,408.64 L 445.30,408.43 L 446.60,408.22 L 447.90,408.01 L 449.20,407.80 L 450.50,407.60 L 451.80,407.41 L 453.10,407.21 L 454.40,407.02 L 455.70,406.84 L 457.00,406.66 L 458.30,406.48 L 459.60,406.30 L 460.90,406.13 L 462.20,405.96 L 463.50,405.79 L 464.80,405.62 L 466.10,405.46 L 467.40,405.31 L 468.70,405.15 L 470.00,405.00 L 471.30,404.85 L 472.60,404.71 L 473.90,404.56 L 475.20,404.42 L 476.50,404.29 L 477.80,404.15 L 479.10,404.02 L 480.40,403.89 L 481.70,403.77 L 483.00,403.65 L 484.30,403.52 L 485.60,403.41 L 486.90,403.29 L 488.20,403.18 L 489.50,403.07 L 490.80,402.96 L 492.10,402.86 L 493.40,402.76 L 494.70,402.66 L 496.00,402.56 L 497.30,402.47 L 498.60,402.37 L 499.90,402.28 L 501.20,402.19 L 502.50,402.11 L 503.80,402.03 L 505.10,401.95 L 506.40,401.87 L 507.70,401.79 L 509.00,401.72 L 510.30,401.64 L 511.60,401.57 L 512.90,401.50 L 514.20,401.44 L 515.50,401.37 L 516.80,401.31 L 518.10,401.25 L 519.40,401.19 L 520.70,401.13 L 522.00,401.08 L 523.30,401.03 L 524.60,400.98 L 525.90,400.93 L 527.20,400.88 L 528.50,400.83 L 529.80,400.79 L 531.10,400.74 L 532.40,400.70 L 533.70,400.66 L 535.00,400.62 L 536.30,400.59 L 537.60,400.55 L 538.90,400.52 L 540.20,400.49 L 541.50,400.46 L 542.80,400.43 L 544.10,400.40 L 545.40,400.37 L 546.70,400.34 L 548.00,400.32 L 549.30,400.30 L 550.60,400.27 L 551.90,400.25 L 553.20,400.23 L 554.50,400.21 L 555.80,400.20 L 557.10,400.18 L 558.40,400.16 L 559.70,400.15 L 561.00,400.13 L 562.30,400.12 L 563.60,400.11 L 564.90,400.10 L 566.20,400.09 L 567.50,400.08 L 568.80,400.07 L 570.10,400.06 L 571.40,400.05 L 572.70,400.05 L 574.00,400.04 L 575.30,400.03 L 576.60,400.03 L 577.90,400.02 L 579.20,400.02 L 580.50,400.02 L 581.80,400.01 L 583.10,400.01 L 584.40,400.01 L 585.70,400.01 L 587.00,400.00 L 588.30,400.00 L 589.60,400.00 L 590.90,400.00 L 592.20,400.00 L 593.50,400.00 L 594.80,400.00 L 596.10,400.00 L 597.40,400.00 L 598.70,400.00 L 600.00,400.00 L 601.30,400.00 L 602.60,400.00 L 603.90,400.00 L 605.20,400.00 L 606.50,400.00 L 607.80,400.00 L 609.10,400.00 L 610.40,400.00 L 611.70,400.00 L 613.00,400.00 L 614.30,399.99 L 615.60,399.99 L 616.90,399.99 L 618.20,399.99 L 619.50,399.98 L 620.80,399.98 L 622.10,399.98 L 623.40,399.97 L 624.70,399.97 L 626.00,399.96 L 627.30,399.95 L 628.60,399.95 L 629.90,399.94 L 631.20,399.93 L 632.50,399.92 L 633.80,399.91 L 635.10,399.90 L 636.40,399.89 L 637.70,399.88 L 639.00,399.87 L 640.30,399.85 L 641.60,399.84 L 642.90,399.82 L 644.20,399.80 L 645.50,399.79 L 646.80,399.77 L 648.10,399.75 L 649.40,399.73 L 650.70,399.70 L 652.00,399.68 L 653.30,399.66 L 654.60,399.63 L 655.90,399.60 L 657.20,399.57 L 658.50,399.54 L 659.80,399.51 L 661.10,399.48 L 662.40,399.45 L 663.70,399.41 L 665.00,399.38 L 666.30,399.34 L 667.60,399.30 L 668.90,399.26 L 670.20,399.21 L 671.50,399.17 L 672.80,399.12 L 674.10,399.07 L 675.40,399.02 L 676.70,398.97 L 678.00,398.92 L 679.30,398.87 L 680.60,398.81 L 681.90,398.75 L 683.20,398.69 L 684.50,398.63 L 685.80,398.56 L 687.10,398.50 L 688.40,398.43 L 689.70,398.36 L 691.00,398.28 L 692.30,398.21 L 693.60,398.13 L 694.90,398.05 L 696.20,397.97 L 697.50,397.89 L 698.80,397.81 L 700.10,397.72 L 701.40,397.63 L 702.70,397.53 L 704.00,397.44 L 705.30,397.34 L 706.60,397.24 L 707.90,397.14 L 709.20,397.04 L 710.50,396.93 L 711.80,396.82 L 713.10,396.71 L 714.40,396.59 L 715.70,396.48 L 717.00,396.35 L 718.30,396.23 L 719.60,396.11 L 720.90,395.98 L 722.20,395.85 L 723.50,395.71 L 724.80,395.58 L 726.10,395.44 L 727.40,395.29 L 728.70,395.15 L 730.00,395.00 L 731.30,394.85 L 732.60,394.69 L 733.90,394.54 L 735.20,394.38 L 736.50,394.21 L 737.80,394.04 L 739.10,393.87 L 740.40,393.70 L 741.70,393.52 L 743.00,393.34 L 744.30,393.16 L 745.60,392.98 L 746.90,392.79 L 748.20,392.59 L 749.50,392.40 L 750.80,392.20 L 752.10,391.99 L 753.40,391.78 L 754.70,391.57 L 756.00,391.36 L 757.30,391.14 L 758.60,390.92 L 759.90,390.70 L 761.20,390.47 L 762.50,390.23 L 763.80,390.00 L 765.10,389.76 L 766.40,389.51 L 767.70,389.27 L 769.00,389.02 L 770.30,388.76 L 771.60,388.50 L 772.90,388.24 L 774.20,387.97 L 775.50,387.70 L 776.80,387.42 L 778.10,387.14 L 779.40,386.86 L 780.70,386.57 L 782.00,386.28 L 783.30,385.98 L 784.60,385.68 L 785.90,385.38 L 787.20,385.07 L 788.50,384.76 L 789.80,384.44 L 791.10,384.12 L 792.40,383.79 L 793.70,383.46 L 795.00,383.12 L 796.30,382.79 L 797.60,382.44 L 798.90,382.09 L 800.20,381.74 L 801.50,381.38 L 802.80,381.02 L 804.10,380.65 L 805.40,380.28 L 806.70,379.90 L 808.00,379.52 L 809.30,379.13 L 810.60,378.74 L 811.90,378.35 L 813.20,377.95 L 814.50,377.54 L 815.80,377.13 L 817.10,376.71 L 818.40,376.29 L 819.70,375.87 L 821.00,375.43 L 822.30,375.00 L 823.60,374.56 L 824.90,374.11 L 826.20,373.66 L 827.50,373.20 L 828.80,372.74 L 830.10,372.27 L 831.40,371.80 L 832.70,371.32 L 834.00,370.84 L 835.30,370.35 L 836.60,369.86 L 837.90,369.36 L 839.20,368.85 L 840.50,368.34 L 841.80,367.83 L 843.10,367.30 L 844.40,366.78 L 845.70,366.24 L 847.00,365.70 L 848.30,365.16 L 849.60,364.61 L 850.90,364.05 L 852.20,363.49 L 853.50,362.93 L 854.80,362.35 L 856.10,361.77 L 857.40,361.19 L 858.70,360.60 L 860.00,360.00 L 861.30,359.40 L 862.60,358.79 L 863.90,358.17 L 865.20,357.55 L 866.50,356.92 L 867.80,356.29 L 869.10,355.65 L 870.40,355.01 L 871.70,354.35 L 873.00,353.69 L 874.30,353.03 L 875.60,352.36 L 876.90,351.68 L 878.20,351.00 L 879.50,350.31 L 880.80,349.61 L 882.10,348.91 L 883.40,348.20 L 884.70,347.48 L 886.00,346.76 L 887.30,346.03 L 888.60,345.29 L 889.90,344.55 L 891.20,343.80 L 892.50,343.05 L 893.80,342.28 L 895.10,341.51 L 896.40,340.74 L 897.70,339.96 L 899.00,339.17 L 900.30,338.37 L 901.60,337.56 L 902.90,336.75 L 904.20,335.94 L 905.50,335.11 L 906.80,334.28 L 908.10,333.44 L 909.40,332.59 L 910.70,331.74 L 912.00,330.88 L 913.30,330.01 L 914.60,329.14 L 915.90,328.26 L 917.20,327.37 L 918.50,326.47 L 919.80,325.57 L 921.10,324.65 L 922.40,323.74 L 923.70,322.81 L 925.00,321.88 L 926.30,320.93 L 927.60,319.98 L 928.90,319.03 L 930.20,318.06 L 931.50,317.09 L 932.80,316.11 L 934.10,315.13 L 935.40,314.13 L 936.70,313.13 L 938.00,312.12 L 939.30,311.10 L 940.60,310.08 L 941.90,309.04 L 943.20,308.00 L 944.50,306.95 L 945.80,305.89 L 947.10,304.83 L 948.40,303.76 L 949.70,302.67 L 951.00,301.58 L 952.30,300.49 L 953.60,299.38 L 954.90,298.27 L 956.20,297.15 L 957.50,296.02 L 958.80,294.88 L 960.10,293.73 L 961.40,292.58 L 962.70,291.41 L 964.00,290.24 L 965.30,289.06 L 966.60,287.87 L 967.90,286.67 L 969.20,285.47 L 970.50,284.25 L 971.80,283.03 L 973.10,281.80 L 974.40,280.56 L 975.70,279.31 L 977.00,278.06 L 978.30,276.79 L 979.60,275.51 L 980.90,274.23 L 982.20,272.94 L 983.50,271.64 L 984.80,270.33 L 986.10,269.01 L 987.40,267.68 L 988.70,266.35 L 990.00,265.00 L 991.30,263.65 L 992.60,262.28 L 993.90,260.91 L 995.20,259.53 L 996.50,258.14 L 997.80,256.74 L 999.10,255.33 L 1000.40,253.91 L 1001.70,252.48 L 1003.00,251.05 L 1004.30,249.60 L 1005.60,248.14 L 1006.90,246.68 L 1008.20,245.20 L 1009.50,243.72 L 1010.80,242.23 L 1012.10,240.72 L 1013.40,239.21 L 1014.70,237.69 L 1016.00,236.16 L 1017.30,234.62 L 1018.60,233.07 L 1019.90,231.51 L 1021.20,229.94 L 1022.50,228.36 L 1023.80,226.77 L 1025.10,225.17 L 1026.40,223.56 L 1027.70,221.94 L 1029.00,220.32 L 1030.30,218.68 L 1031.60,217.03 L 1032.90,215.37 L 1034.20,213.70 L 1035.50,212.02 L 1036.80,210.33 L 1038.10,208.64 L 1039.40,206.93 L 1040.70,205.21 L 1042.00,203.48 L 1043.30,201.74 L 1044.60,199.99 L 1045.90,198.23 L 1047.20,196.46 L 1048.50,194.68 L 1049.80,192.89 L 1051.10,191.09 L 1052.40,189.28 L 1053.70,187.46 L 1055.00,185.62 L 1056.30,183.78 L 1057.60,181.93 L 1058.90,180.07 L 1060.20,178.19 L 1061.50,176.31 L 1062.80,174.41 L 1064.10,172.50 L 1065.40,170.59 L 1066.70,168.66 L 1068.00,166.72 L 1069.30,164.77 L 1070.60,162.81 L 1071.90,160.84 L 1073.20,158.86 L 1074.50,156.86 L 1075.80,154.86 L 1077.10,152.85 L 1078.40,150.82 L 1079.70,148.78 L 1081.00,146.73 L 1082.30,144.68 L 1083.60,142.61 L 1084.90,140.52 L 1086.20,138.43 L 1087.50,136.33 L 1088.80,134.21 L 1090.10,132.09 L 1091.40,129.95 L 1092.70,127.80 L 1094.00,125.64 L 1095.30,123.47 L 1096.60,121.29 L 1097.90,119.09 L 1099.20,116.88 L 1100.50,114.67 L 1101.80,112.44 L 1103.10,110.20 L 1104.40,107.94 L 1105.70,105.68 L 1107.00,103.41 L 1108.30,101.12 L 1109.60,98.82 L 1110.90,96.51 L 1112.20,94.19 L 1113.50,91.85 L 1114.80,89.50 L 1116.10,87.15 L 1117.40,84.78 L 1118.70,82.39 L 1120.00,80.00" fill="none" stroke="#1f4fff" stroke-width="5"/>

  <!-- title -->
  <text x="600.00" y="42" font-size="30" text-anchor="middle" fill="#111">Graph of y = x^3</text>
</svg>
